Coordinates
version=1
nRows=13
nColumns=34
inDegrees=yes

Units are S.I. units (second, meters, Newtons, ...)
If the header above contains a line with 'inDegrees', this indicates whether rotational values are in degrees (yes) or radians (no).

endheader
time	pelvis_tilt	pelvis_list	pelvis_rotation	pelvis_tx	pelvis_ty	pelvis_tz	hip_flexion_r	hip_adduction_r	hip_rotation_r	knee_angle_r	ankle_angle_r	subtalar_angle_r	mtp_angle_r	hip_flexion_l	hip_adduction_l	hip_rotation_l	knee_angle_l	ankle_angle_l	subtalar_angle_l	mtp_angle_l	lumbar_extension	lumbar_bending	lumbar_rotation	arm_flex_r	arm_add_r	arm_rot_r	elbow_flex_r	pro_sup_r	arm_flex_l	arm_add_l	arm_rot_l	elbow_flex_l	pro_sup_l
      1.91666670	     -5.07538676	     10.99177284	    -79.69881516	      0.77955828	      0.88759892	     -0.31640013	     30.98711236	     -5.07331655	     -0.57641170	     17.05388484	    -24.16202522	    -35.00000000	      0.00000000	     14.31925220	      0.65450260	    -22.60345363	     14.65626821	      9.47086430	     22.60302539	      0.00000000	     -5.78751612	    -18.61784710	     11.25058817	     13.85948869	     19.18250435	     64.00617740	     38.75737895	     83.74160459	     28.15898979	    -21.31265467	    313.17908165	      0.00000000	    119.74817918
      1.93333330	     -5.26277320	     11.19728250	    -79.60603788	      0.77675537	      0.88792788	     -0.31402439	     30.82057374	     -4.84671498	     -0.50497601	     17.11175179	    -23.76740572	    -35.00000000	      0.00000000	     14.59998206	     -0.04855634	    -22.96965699	     15.26812741	     10.18774265	     22.99204324	      0.00000000	     -5.34446139	    -18.59960607	     11.47843945	     13.86505548	     20.81234061	     63.82530412	     36.86370298	     83.29160486	     28.35663310	    -21.47316387	    314.69064963	      0.00000000	    119.74817918
      1.95000000	     -5.21305360	     11.25348959	    -79.53974117	      0.77820097	      0.88920338	     -0.31423957	     30.45906248	     -4.96779868	     -0.17728223	     17.12992492	    -23.54443339	    -35.00000000	      0.00000000	     14.53665971	     -0.35813256	    -23.02245438	     15.44849993	     10.33636899	     22.82886535	      0.00000000	     -5.20756078	    -18.74037438	     11.41119700	     13.81550660	     21.28506315	     63.85295714	     36.95433013	     83.26945184	     28.35717099	    -21.27777760	    314.79046512	      0.00000000	    119.74817918
      1.96666670	     -5.10679610	     11.13825042	    -79.69123817	      0.77844875	      0.88967308	     -0.31400980	     30.03790776	     -5.04126786	      0.47126206	     17.25377198	    -23.11847088	    -35.00000000	      0.00000000	     14.28321378	     -0.62241974	    -23.12327782	     15.69847371	     11.10477733	     22.32512060	      0.00000000	     -5.37044997	    -18.64583796	     11.38297263	     13.70260728	     21.57197957	     63.78343830	     36.50621835	     83.12602442	     28.15703764	    -21.03127076	    315.32698012	      0.00000000	    119.74817918
      1.98333330	     -5.03082464	     11.19805717	    -79.69668878	      0.77425790	      0.88943372	     -0.31222733	     29.82033896	     -5.14480870	      0.57913558	     17.34372389	    -23.12346362	    -35.00000000	      0.00000000	     14.17182091	     -0.77778792	    -22.99633079	     15.76371824	     11.08307920	     22.33090916	      0.00000000	     -5.25852976	    -18.60413203	     11.39506305	     13.65034837	     21.91028988	     63.81686126	     36.53923302	     83.11296679	     28.12467799	    -20.79393195	    315.39494028	      0.00000000	    119.74817918
      2.00000000	     -4.72147092	     11.07892544	    -79.77342040	      0.76630581	      0.88895569	     -0.30935749	     29.60750648	     -5.18272315	      0.60748621	     17.79976223	    -22.73505398	    -35.00000000	      0.00000000	     13.76672752	     -0.72964823	    -22.21818763	     15.72928116	     10.68835776	     21.07523112	      0.00000000	     -6.94478642	    -18.41323882	      7.50253095	     14.32775161	     23.98267499	     68.03986144	     34.27641079	     81.76948133	     26.82579874	    -39.50259179	    448.04889543	     43.20338142	     40.09684266
      2.01666670	     -4.85570813	     11.04213449	    -79.91865668	      0.76169007	      0.88896634	     -0.30615715	     29.32529741	     -4.77483255	      0.59568098	     17.90316181	    -22.31571562	    -35.00000000	      0.00000000	     13.54564814	     -1.30573852	    -22.40482678	     16.06980114	     10.75825528	     21.68697932	      0.00000000	     -6.75358022	    -18.17834551	      7.86801824	     14.25075597	     24.46975215	     67.84607204	     33.47626764	     81.53990722	     26.72398219	    -39.39583894	    448.02479094	     43.09385956	     40.02003647
      2.03333330	     -4.85400818	     11.08573179	    -79.89912443	      0.76039532	      0.89042109	     -0.30448039	     29.02466065	     -4.60238625	      1.00611404	     17.92169678	    -21.89812471	    -35.00000000	      0.00000000	     13.40086590	     -1.66211594	    -22.14859572	     16.29297859	     10.78388443	     21.75618517	      0.00000000	     -6.65803917	    -18.14782434	      7.81672528	     14.17830534	     24.28798398	     67.70267470	     33.24472452	     81.44009814	     26.66069575	    -39.43133952	    448.02307119	     42.90539879	     39.98499933
      2.05000000	     -4.77103908	     10.87832407	    -79.76385658	      0.76009852	      0.89244032	     -0.30368810	     28.35799406	     -4.62909944	      1.46244142	     17.81640989	    -21.54872410	    -35.00000000	      0.00000000	     13.06533055	     -1.97404811	    -21.93234341	     16.65983755	     10.94966759	     21.69751235	      0.00000000	     -6.84324667	    -17.80679600	      7.49352355	     13.90542820	     23.44094614	     66.90770021	     33.33627639	     80.92171692	     26.21645046	    -38.90298146	    447.84521150	     41.90506613	     39.77610148
      2.06666670	     -4.58731643	     10.95940472	    -79.65663837	      0.75700238	      0.89341497	     -0.30288322	     28.10982497	     -4.80154825	      1.79442995	     17.82570709	    -21.43724981	    -35.00000000	      0.00000000	     12.95805267	     -2.10493528	    -21.83471589	     16.82386089	     10.90247232	     21.71567667	      0.00000000	     -6.66741719	    -17.80554975	      7.28554127	     13.85686994	     22.53450520	     66.83038503	     33.08627693	     80.89787245	     26.17761559	    -38.87435916	    447.84207439	     41.91204384	     39.77018873
      2.08333330	     -4.44058967	     10.75311362	    -79.71906289	      0.75166564	      0.89418054	     -0.30147719	     27.41269985	     -4.80060289	      1.96904011	     17.43959176	    -21.34032029	    -35.00000000	      0.00000000	     12.44838151	     -2.19140044	    -21.48936394	     16.83040618	     10.60117010	     21.47072577	      0.00000000	     -6.85675006	    -17.36719071	      7.04798848	     13.54181702	     21.09323428	     66.37769143	     34.66161427	     80.51277012	     25.45174831	    -38.72637509	    447.65423222	     41.49183724	     39.56695956
      2.10000000	     -4.27091523	     10.83408180	    -79.73085445	      0.74502696	      0.89379974	     -0.29969519	     27.21660353	     -4.82787122	      1.98964738	     17.38244237	    -21.24682739	    -35.00000000	      0.00000000	     12.34310532	     -2.26809857	    -21.32392733	     17.01210869	     10.44636050	     21.53502831	      0.00000000	     -6.71162734	    -17.26727624	      7.14833511	     13.60312658	     20.72572624	     66.32213104	     34.60340748	     80.48369585	     25.39903342	    -38.96827741	    447.64108173	     41.43177113	     39.55055739
      2.11666670	     -4.29070726	     10.90275594	    -79.62382641	      0.73933168	      0.89316729	     -0.29762179	     26.90588844	     -4.64783229	      2.09624278	     17.17971269	    -20.91550035	    -35.00000000	      0.00000000	     12.28676907	     -2.57144334	    -21.13147500	     17.18559821	     10.17997802	     21.58315557	      0.00000000	     -6.55543902	    -17.21295191	      7.32426443	     13.78039125	     21.02288463	     66.29054911	     34.76852279	     80.42263848	     25.46352508	    -39.29020383	    447.59255805	     41.41400083	     39.51479569
